<?xml version="1.0" encoding="UTF-8" standalone="no" ?>
<!DOCTYPE svg PUBLIC "-//W3C//DTD SVG 1.1//EN" "http://www.w3.org/Graphics/SVG/1.1/DTD/svg11.dtd">
<svg xmlns="http://www.w3.org/2000/svg" xmlns:xlink="http://www.w3.org/1999/xlink" version="1.1" width="236" height="296" viewBox="27 73 118 148" xml:space="preserve">
<desc>Created with Fabric.js 4.6.0</desc>
<defs>
</defs>
<g transform="matrix(1 0 0 1 86.11 146.69)" id="ssWq8tSTRN_3foWlTnFry"  >
<g style="" vector-effect="non-scaling-stroke"   >
		<g transform="matrix(1 0 0 1 9.27 39.57)" id="Pt44kZiZWZBpqx949kb1m"  >
<path style="stroke: none; stroke-width: 1; stroke-dasharray: none; stroke-linecap: butt; stroke-dashoffset: 0; stroke-linejoin: miter; stroke-miterlimit: 4; fill: rgb(0,81,0); fill-rule: evenodd; opacity: 1;" vector-effect="non-scaling-stroke"  transform=" translate(-514.28, -954.54)" d="M 504.4 926.85 L 505.8184 927.23036 C 503.6649 943.2763600000001 512.055 967.51436 524.5934 980.1563600000001 C 522.5232 979.5850600000001 521.8367 980.3975600000001 522.1714999999999 982.23126 C 509.0344999999999 968.98526 502.1284999999999 943.77326 504.4004999999999 926.8492600000001 z" stroke-linecap="round" />
</g>
		<g transform="matrix(0.45 0 0 0.5 0 -19.82)" id="GzicBTyzPs9dsrfIWudsL"  >
<linearGradient id="SVGID_28" gradientUnits="userSpaceOnUse" gradientTransform="matrix(1 0 0 1 0 0)"  x1="-17.279" y1="779.7" x2="150.71" y2="704.69">
<stop offset="0%" style="stop-color:rgb(243,195,27);stop-opacity: 1"/>
<stop offset="100%" style="stop-color:rgb(102,140,57);stop-opacity: 1"/>
</linearGradient>
<path style="stroke: none; stroke-width: 1; stroke-dasharray: none; stroke-linecap: butt; stroke-dashoffset: 0; stroke-linejoin: miter; stroke-miterlimit: 4; fill: url(#SVGID_28); fill-rule: nonzero; opacity: 1;" vector-effect="non-scaling-stroke"  transform=" translate(-87.08, -716.95)" d="M 95.009 790.11 C 113.706 793.181 129.34300000000002 801.758 144.135 811.854 C 153.6668 803.4411 163.85 795.248 183.682 790.3100000000001 C 176.84029999999998 787.7603 177.2214 783.9110000000001 176.67749999999998 780.2280000000001 C 182.8406 772.8332 191.0955 769.2020000000001 201.19349999999997 768.8860000000001 L 190.74649999999997 758.2410000000001 C 191.10122999999996 752.1500000000001 195.87679999999997 744.7320000000001 203.99549999999996 738.6410000000001 C 187.41849999999997 745.3423 170.84049999999996 739.4847100000001 154.26349999999996 736.1206000000001 C 162.57779999999997 730.7109 166.49749999999997 723.7196000000001 168.27249999999998 715.9576000000001 C 163.0065 712.8146 159.10559999999998 708.8530000000001 157.76549999999997 703.3556000000001 C 164.40469999999996 699.6477000000001 168.40149999999997 694.9890000000001 168.4885 688.9236000000001 C 162.5793 683.8809000000001 156.67049999999998 686.5534000000001 150.76149999999998 686.9730000000001 C 146.64939999999999 678.1515 146.21659999999997 669.33 148.66019999999997 660.508 C 146.20119999999997 668.0752 137.51419999999996 662.5687 131.56619999999998 662.8133 C 132.36307 669.6536 128.8284 674.7623 117.84019999999998 676.8903 C 114.06509999999999 669.3290000000001 115.15719999999999 667.4432 119.24109999999999 659.8823 C 114.80489999999999 660.8081 109.9322 664.7789 105.49609999999998 662.2137 C 94.40509999999999 654.2323 98.42309999999998 651.4897 101.29339999999999 643.5087 C 92.43409999999999 628.8197 86.64139999999999 622.0536999999999 86.64139999999999 622.0536999999999 C 86.64139999999999 622.0536999999999 79.5393 630.5658 71.98939999999999 643.5087 C 74.85969999999999 651.4901 78.87719999999999 654.2327 67.7867 662.2137 C 63.3505 664.779 59.350899999999996 660.8081 54.914699999999996 659.8823 C 58.998599999999996 667.4436 60.0907 669.3294999999999 56.315599999999996 676.8903 C 45.3276 674.7617 41.79259999999999 669.6531 42.5896 662.8133 C 36.6421 662.5686400000001 27.9546 668.0752 25.495599999999996 660.508 C 27.939099999999996 669.3295 27.506299999999996 678.1510000000001 23.394199999999998 686.9730000000001 C 17.485 686.55344 11.576199999999998 683.8809000000001 5.667199999999998 688.9236000000001 C 5.754199999999997 694.9892000000001 9.750999999999998 699.6476000000001 16.3902 703.3556000000001 C 15.0504 708.8532000000001 11.1494 712.8148000000001 5.8832 715.9576000000001 C 7.6578 723.7205 11.5779 730.7116000000001 19.892200000000003 736.1206000000001 C 3.315200000000001 739.4847000000001 -13.262799999999999 745.3424000000001 -29.839799999999997 738.6410000000001 C -21.720899999999997 744.7320000000001 -16.9458 752.1500000000001 -16.590799999999994 758.2410000000001 L -27.037799999999994 768.8860000000001 C -16.940799999999996 769.2022600000001 -8.684799999999992 772.8332 -2.5217999999999954 780.2280000000001 C -3.0657199999999953 783.9108000000001 -2.6845399999999953 787.7600000000001 -9.526299999999996 790.3100000000001 C 10.306700000000003 795.2481 20.489700000000003 803.441 30.0207 811.854 C 44.8137 801.758 60.4497 793.181 79.1467 790.11 C 81.73169999999999 790.36846 84.2311 786.7554 87.0771 787.1396 C 89.9231 786.7553899999999 92.4225 790.3684999999999 95.00750000000001 790.11 z" stroke-linecap="round" />
</g>
		<g transform="matrix(1 0 0 1 -22.1 9.34)" id="AflnL-MsodR81pnOOT5Ic"  >
<path style="stroke: rgb(0,65,0); stroke-opacity: 0.2; stroke-width: 1; stroke-dasharray: none; stroke-linecap: round; stroke-dashoffset: 0; stroke-linejoin: bevel; stroke-miterlimit: 4; fill: none; fill-rule: nonzero; opacity: 0.5;" vector-effect="non-scaling-stroke"  transform=" translate(-482.91, -924.31)" d="M 505.2 929.17 C 492.22499999999997 919.3340999999999 476.408 919.4472 460.62399999999997 919.4443" stroke-linecap="round" />
</g>
		<g transform="matrix(1 0 0 1 23.02 9.07)" id="Kjm_IP7hLfGcxlNX8OZaX"  >
<path style="stroke: rgb(0,65,0); stroke-opacity: 0.2; stroke-width: 1; stroke-dasharray: none; stroke-linecap: round; stroke-dashoffset: 0; stroke-linejoin: bevel; stroke-miterlimit: 4; fill: none; fill-rule: nonzero; opacity: 0.5;" vector-effect="non-scaling-stroke"  transform=" translate(-528.03, -924.04)" d="M 505.74 928.9 C 518.715 919.0640999999999 534.532 919.1772 550.316 919.1743" stroke-linecap="round" />
</g>
		<g transform="matrix(1 0 0 1 -13.99 -2.55)" id="Qi4yddU6JKI1V1g9DMyJG"  >
<path style="stroke: rgb(0,65,0); stroke-opacity: 0.2; stroke-width: 1; stroke-dasharray: none; stroke-linecap: round; stroke-dashoffset: 0; stroke-linejoin: bevel; stroke-miterlimit: 4; fill: none; fill-rule: nonzero; opacity: 0.5;" vector-effect="non-scaling-stroke"  transform=" translate(-491.02, -912.42)" d="M 504.92 929.05 C 503.63100000000003 912.8199999999999 487.62 907.5699999999999 477.12100000000004 895.784" stroke-linecap="round" />
</g>
		<g transform="matrix(1 0 0 1 13.83 -2.01)" id="id8uEN35N0gP2d-oN8MGo"  >
<path style="stroke: rgb(0,65,0); stroke-opacity: 0.2; stroke-width: 1; stroke-dasharray: none; stroke-linecap: round; stroke-dashoffset: 0; stroke-linejoin: bevel; stroke-miterlimit: 4; fill: none; fill-rule: nonzero; opacity: 0.5;" vector-effect="non-scaling-stroke"  transform=" translate(-518.84, -912.96)" d="M 504.94 929.59 C 506.229 913.36 522.24 908.11 532.739 896.3240000000001" stroke-linecap="round" />
</g>
		<g transform="matrix(1 0 0 1 -11.29 -12.68)" id="ZpdUKNv5NmrTe8yVG5ueI"  >
<path style="stroke: rgb(0,65,0); stroke-opacity: 0.2; stroke-width: 1; stroke-dasharray: none; stroke-linecap: round; stroke-dashoffset: 0; stroke-linejoin: bevel; stroke-miterlimit: 4; fill: none; fill-rule: nonzero; opacity: 0.5;" vector-effect="non-scaling-stroke"  transform=" translate(-493.72, -902.29)" d="M 504.92 929.05 C 503.63100000000003 907.194 493.023 891.394 482.524 875.5229999999999" stroke-linecap="round" />
</g>
		<g transform="matrix(1 0 0 1 13.02 -14.03)" id="0CVltzcIZ7OECj_19p-g2"  >
<path style="stroke: rgb(0,65,0); stroke-opacity: 0.2; stroke-width: 1; stroke-dasharray: none; stroke-linecap: round; stroke-dashoffset: 0; stroke-linejoin: bevel; stroke-miterlimit: 4; fill: none; fill-rule: nonzero; opacity: 0.5;" vector-effect="non-scaling-stroke"  transform=" translate(-518.03, -900.94)" d="M 506.83 927.7 C 508.11899999999997 905.844 518.727 890.0440000000001 529.226 874.173" stroke-linecap="round" />
</g>
		<g transform="matrix(1 0 0 1 -0.08 -24.16)" id="lWVfmJPvR_gJeRu0To_PQ"  >
<path style="stroke: rgb(0,65,0); stroke-opacity: 0.2; stroke-width: 1; stroke-dasharray: none; stroke-linecap: round; stroke-dashoffset: 0; stroke-linejoin: bevel; stroke-miterlimit: 4; fill: none; fill-rule: nonzero; opacity: 0.5;" vector-effect="non-scaling-stroke"  transform=" translate(-504.93, -890.81)" d="M 505.47 929.44 L 504.3894 852.1740000000001" stroke-linecap="round" />
</g>
</g>
</g>
</svg>