<?xml version="1.0" encoding="UTF-8" standalone="no" ?>
<!DOCTYPE svg PUBLIC "-//W3C//DTD SVG 1.1//EN" "http://www.w3.org/Graphics/SVG/1.1/DTD/svg11.dtd">
<svg xmlns="http://www.w3.org/2000/svg" xmlns:xlink="http://www.w3.org/1999/xlink" version="1.1" width="298" height="342" viewBox="52 253 149 171" xml:space="preserve">
<desc>Created with Fabric.js 4.6.0</desc>
<defs>
</defs>
<g transform="matrix(1 0 0 1 118.13 389.75)" id="jk_htWPX58osVPG_-EMbq"  >
<path style="stroke: none; stroke-width: 1; stroke-dasharray: none; stroke-linecap: butt; stroke-dashoffset: 0; stroke-linejoin: miter; stroke-miterlimit: 4; fill: rgb(0,81,0); fill-rule: evenodd; opacity: 1;" vector-effect="non-scaling-stroke"  transform=" translate(-89.6, -963.88)" d="M 99.482 936.19 L 98.0636 936.57036 C 100.21709999999999 952.6163600000001 91.827 976.85436 79.2886 989.4963600000001 C 81.3588 988.9250600000001 82.0453 989.7375600000001 81.7105 991.57126 C 94.8475 978.3252600000001 101.7535 953.1132600000001 99.4815 936.1892600000001 z" stroke-linecap="round" />
</g>
<g transform="matrix(0.5 0 0 0.5 127.01 318.96)" id="mklMbNph7JMMwdDL8atze"  >
<radialGradient id="SVGID_23" gradientUnits="userSpaceOnUse" gradientTransform="matrix(0.99 0.15 -0.11 0.71 114.78 153.29)"  cx="299.48" cy="991.53" r="136.31" fx="299.48" fy="991.53">
<stop offset="0%" style="stop-color:rgb(228,16,18);stop-opacity: 1"/>
<stop offset="100%" style="stop-color:rgb(250,217,59);stop-opacity: 1"/>
</radialGradient>
<path style="stroke: none; stroke-width: 1; stroke-dasharray: none; stroke-linecap: butt; stroke-dashoffset: 0; stroke-linejoin: miter; stroke-miterlimit: 4; fill: url(#SVGID_23); fill-rule: evenodd; opacity: 1;" vector-effect="non-scaling-stroke"  transform=" translate(-361.64, -837.74)" d="M 417.3 956.42 L 418.13137 940.6239999999999 C 427.04207 937.2984999999999 437.01237000000003 933.9730999999999 443.90437000000003 930.6475999999999 C 453.32657 918.7215999999999 462.74837 922.1257999999999 472.17137 918.1765999999999 L 497.94437000000005 919.8393999999998 C 484.21537000000006 912.7843999999999 468.53437 907.6813999999998 458.86937000000006 896.5613999999998 L 459.70074000000005 879.9343999999999 L 471.33974000000006 871.6205999999999 L 488.79874000000007 854.1615999999999 L 477.15974000000006 850.8360999999999 C 479.98284000000007 831.9920999999998 475.30744000000004 813.1470999999999 487.96774000000005 794.3030999999999 C 478.42594 795.1779399999998 469.64574000000005 792.2439999999999 458.0387400000001 803.4481999999998 L 452.2191400000001 793.4716999999998 C 445.7463400000001 809.4416999999999 430.9011400000001 811.2676999999999 420.6271400000001 821.7386999999999 C 406.1541400000001 810.3826999999999 410.5881400000001 783.2696999999998 408.1561400000001 761.8796999999998 C 383.5941400000001 762.1579899999998 370.9511400000001 734.7566999999998 361.6361400000001 719.0656999999999 C 352.3205400000001 734.7566999999999 339.6771400000001 762.1576999999999 315.11614000000014 761.8796999999998 C 312.6841400000001 783.2696999999998 317.11884000000015 810.3826999999999 302.64514000000014 821.7386999999999 C 292.37014000000016 811.2676999999999 277.52614000000017 809.4416999999999 271.05314000000016 793.4716999999998 L 265.2335400000002 803.4481999999998 C 253.62554000000017 792.2441999999999 244.84554000000017 795.1778999999998 235.30454000000017 794.3030999999999 C 247.96454000000017 813.1470999999999 243.28934000000018 831.9920999999998 246.11254000000017 850.8360999999999 L 234.47354000000016 854.1615999999999 L 251.93254000000016 871.6205999999999 L 263.57154000000014 879.9343999999999 L 264.40291000000013 896.5613999999998 C 254.73871000000014 907.6813999999998 239.05791000000013 912.7843999999998 225.32791000000014 919.8393999999998 L 251.10091000000014 918.1765999999999 C 260.52311000000014 922.1253999999999 269.94491000000016 918.7208999999999 279.36791000000017 930.6475999999999 C 286.2591100000002 933.9730999999999 296.2299100000002 937.2984999999999 305.1409100000002 940.6239999999999 L 305.9722800000002 956.42 C 324.1552800000002 956.562 362.4692800000002 935.0219999999999 362.4692800000002 935.0219999999999 C 362.4692800000002 935.0219999999999 399.1202800000002 956.5619999999999 417.3032800000002 956.42 z" stroke-linecap="round" />
</g>
<g transform="matrix(1 0 0 1 127.48 319.1)" id="mm6OOUKHDy7CoiehfA8BW"  >
<path style="stroke: rgb(146,65,0); stroke-width: 1; stroke-dasharray: none; stroke-linecap: round; stroke-dashoffset: 0; stroke-linejoin: bevel; stroke-miterlimit: 4; fill: none; fill-rule: nonzero; opacity: 0.2;" vector-effect="non-scaling-stroke"  transform=" translate(-98.95, -893.23)" d="M 159.62 872.51 C 143.476 900.181 118.977 896.649 98.58600000000001 913.943 C 85.933 890.5749999999999 43.488000000000014 897.846 38.27800000000001 874.592" stroke-linecap="round" />
</g>
<g transform="matrix(1 0 0 1 126.99 352.76)" id="2WgI3nnx7-bI0v9RkmnaP"  >
<path style="stroke: rgb(146,65,0); stroke-width: 1; stroke-dasharray: none; stroke-linecap: round; stroke-dashoffset: 0; stroke-linejoin: bevel; stroke-miterlimit: 4; fill: none; fill-rule: nonzero; opacity: 0.2;" vector-effect="non-scaling-stroke"  transform=" translate(-98.46, -926.88)" d="M 34.644 933.06 C 56.313 932.65307 78.30699999999999 933.069 98.1 920.708 C 118.28299999999999 926.8642 139.518 931.179 162.28300000000002 932.818" stroke-linecap="round" />
</g>
<g transform="matrix(1 0 0 1 126.63 337.13)" id="WTOeTmormOO1RrK1nFK4y"  >
<path style="stroke: rgb(146,65,0); stroke-width: 1; stroke-dasharray: none; stroke-linecap: round; stroke-dashoffset: 0; stroke-linejoin: bevel; stroke-miterlimit: 4; fill: none; fill-rule: nonzero; opacity: 0.2;" vector-effect="non-scaling-stroke"  transform=" translate(-98.1, -911.26)" d="M 159.62 901.33 C 138.77700000000002 911.5300000000001 117.281 920.229 98.22200000000001 921.19 C 68.61200000000001 918.3752000000001 54.57000000000001 910.11 36.58200000000001 902.056" stroke-linecap="round" />
</g>
<g transform="matrix(1 0 0 1 117.18 299.6)" id="LxNiBeXqvqA2QJT9v65a3"  >
<path style="stroke: rgb(146,65,0); stroke-width: 1; stroke-dasharray: none; stroke-linecap: round; stroke-dashoffset: 0; stroke-linejoin: bevel; stroke-miterlimit: 4; fill: none; fill-rule: nonzero; opacity: 0.2;" vector-effect="non-scaling-stroke"  transform=" translate(-88.65, -873.72)" d="M 98.827 886.56 C 86.993 878.0023 82.75399999999999 869.4449999999999 78.482 860.887" stroke-linecap="round" />
</g>
<g transform="matrix(1 0 0 1 136.44 304.92)" id="nsBtnoSPskMsGD_XGFKi_"  >
<path style="stroke: rgb(146,65,0); stroke-width: 1; stroke-dasharray: none; stroke-linecap: round; stroke-dashoffset: 0; stroke-linejoin: bevel; stroke-miterlimit: 4; fill: none; fill-rule: nonzero; opacity: 0.2;" vector-effect="non-scaling-stroke"  transform=" translate(-107.91, -879.05)" d="M 98.585 896 C 108.0646 886.0026 114.213 874.673 117.234 862.092" stroke-linecap="round" />
</g>
<g transform="matrix(1 0 0 1 127.58 314.05)" id="09OW7ovdLp3jx3b2FNMF8"  >
<path style="stroke: rgb(146,65,0); stroke-width: 1; stroke-dasharray: none; stroke-linecap: butt; stroke-dashoffset: 0; stroke-linejoin: miter; stroke-miterlimit: 4; fill: rgb(146,65,0); fill-rule: evenodd; opacity: 0.2;" vector-effect="non-scaling-stroke"  transform=" translate(-99.05, -888.18)" d="M 99.499 940.79 L 98.60400999999999 835.5699999999999" stroke-linecap="round" />
</g>
</svg>