<svg id="eYqrd3jtp8u1" xmlns="http://www.w3.org/2000/svg" xmlns:xlink="http://www.w3.org/1999/xlink" viewBox="0 0 640 480" shape-rendering="geometricPrecision" text-rendering="geometricPrecision"><path d="" transform="translate(122.318655 42.272943)" fill="none" stroke="#f90f13" stroke-width="1.28"/><path d="M229.859621,201.770318q-23.702759-23.51758-27.591493-23.702758" transform="translate(122.318645 42.272941)" fill="none" stroke="#f90f13" stroke-width="10"/><path d="M202.268129,178.06756l-19.073315,23.702758" transform="translate(122.318644 42.272941)" fill="none" stroke="#f90f13" stroke-width="10"/><path d="M202.268129,178.06756l-19.073315,23.702758" transform="translate(122.318644 42.272941)" fill="none" stroke="#f90f13" stroke-width="10"/><path d="M202.268129,178.06756l-19.073315,23.702758" transform="matrix(0 1-1 0 507.28378 60.848448)" fill="none" stroke="#f90f13" stroke-width="10"/><path d="M206.897572,220.843633l22.96205-19.073315q-23.702759-23.51758-27.591493-23.702758" transform="translate(122.318645 42.272942)" fill="none" stroke="#f90f13" stroke-width="10"/><path d="M183.194814,201.770319q-4.444268,15.691015-9.444068,15.691015c-4.9998,0,0-20.875994,0-33.838441q2.592489.185178,9.444068,18.147424" transform="translate(122.318644 42.272943)" fill="none" stroke="#f90f13" stroke-width="10"/></svg>