<svg id="e7dHDzkrpPx1" xmlns="http://www.w3.org/2000/svg" xmlns:xlink="http://www.w3.org/1999/xlink" viewBox="0 0 640 480" shape-rendering="geometricPrecision" text-rendering="geometricPrecision"><path d="M452.009991,240q-46.301954-39.762652-81.76728-40.7478" fill="none" stroke="#645a5a" stroke-width="10"/><path d="M370.242711,199.2522q-21.673255-42.361362-59.108877-46.301954" transform="translate(.000001 0)" fill="none" stroke="#645a5a" stroke-width="10"/><path d="M452.009991,240l-81.767279,31.168001q-23.64355,31.524733-59.108878,41.376213" transform="translate(.000002 0.000001)" fill="none" stroke="#645a5a" stroke-width="10"/><path d="M311.133835,307.618475l20.688106-36.450473q-55.168286,3.668909-94.574204-31.168003q59.108877-46.930368,94.574204-40.7478l-20.688106-46.301954" transform="translate(0 0.000001)" fill="none" stroke="#645a5a" stroke-width="10"/><path d="M183.064601,187.430426Q210.15617,213.757739,210.15617,240" transform="translate(.000001 0)" fill="none" stroke="#645a5a" stroke-width="10"/><path d="M210.156171,240.000001q-16.254939,37.078887-27.091569,45.945219" transform="translate(.000001 0)" fill="none" stroke="#645a5a" stroke-width="10"/><path d="M183.064603,285.94522q48.272248-25.571318,54.183135-45.945219-15.762366-41.240373-54.183137-52.569575" transform="translate(.000001 0)" fill="none" stroke="#645a5a" stroke-width="10"/><path d="M370.242711,230.284361l-29.554437,15.269793-36.450477-15.269794l36.450476-16.569148l29.554438,16.569149Z" transform="translate(.000001 0.000001)" fill="none" stroke="#645a5a" stroke-width="10"/></svg>